<svg width="18" height="18" viewBox="0 0 18 18" fill="none" xmlns="http://www.w3.org/2000/svg">
<path d="M0.75 0.75H1.80079C1.9987 0.75 2.09766 0.75 2.1773 0.786192C2.24748 0.818086 2.30695 0.86938 2.34863 0.933956C2.39592 1.00723 2.40992 1.10466 2.4379 1.29949L2.81867 3.95M2.81867 3.95L3.6649 10.1351C3.77229 10.92 3.82598 11.3125 4.01467 11.6079C4.18094 11.8682 4.41931 12.0752 4.7011 12.2039C5.02089 12.35 5.41917 12.35 6.21574 12.35H13.1004C13.8587 12.35 14.2378 12.35 14.5477 12.2143C14.8208 12.0947 15.0552 11.9019 15.2245 11.6574C15.4165 11.3801 15.4874 11.0097 15.6293 10.269L16.6941 4.70975C16.7441 4.44905 16.769 4.31869 16.7329 4.2168C16.7011 4.12742 16.6385 4.05215 16.5561 4.00441C16.4622 3.95 16.3288 3.95 16.0619 3.95H2.81867ZM7.18586 15.95C7.18586 16.3918 6.82568 16.75 6.38138 16.75C5.93708 16.75 5.5769 16.3918 5.5769 15.95C5.5769 15.5082 5.93708 15.15 6.38138 15.15C6.82568 15.15 7.18586 15.5082 7.18586 15.95ZM13.6217 15.95C13.6217 16.3918 13.2615 16.75 12.8172 16.75C12.3729 16.75 12.0128 16.3918 12.0128 15.95C12.0128 15.5082 12.3729 15.15 12.8172 15.15C13.2615 15.15 13.6217 15.5082 13.6217 15.95Z" stroke="black" stroke-width="1.5" stroke-linecap="round" stroke-linejoin="round"/>
</svg>
